HIERARCHY
ROOT joint_Root
{
	OFFSET 0.0 0.0 0.0
	CHANNELS 6 Xposition Yposition Zposition Zrotation Xrotation Yrotation 
	JOINT Hips
	{
		OFFSET -0.726466 93.3139 -2.00062
		CHANNELS 6 Xposition Yposition Zposition Zrotation Xrotation Yrotation 
		JOINT Spine
		{
			OFFSET 15.7357 0.0 0.0
			CHANNELS 6 Xposition Yposition Zposition Zrotation Xrotation Yrotation 
			JOINT Chest
			{
				OFFSET 8.98455 -0.406207 0.0
				CHANNELS 6 Xposition Yposition Zposition Zrotation Xrotation Yrotation 
				JOINT Neck
				{
					OFFSET 16.3773 0.0 0.0
					CHANNELS 6 Xposition Yposition Zposition Zrotation Xrotation Yrotation 
					JOINT Head
					{
						OFFSET 6.45672 0.0 0.0
						CHANNELS 6 Xposition Yposition Zposition Zrotation Xrotation Yrotation 
						End Site
						{
							OFFSET 0.0 0.0 0.0
						}
					}
				}
				JOINT Shoulder_L
				{
					OFFSET 12.9942 -0.242716 4.98039
					CHANNELS 6 Xposition Yposition Zposition Zrotation Xrotation Yrotation 
					JOINT UpperArm_L
					{
						OFFSET 5.34809 0.0 0.0
						CHANNELS 6 Xposition Yposition Zposition Zrotation Xrotation Yrotation 
						JOINT LowerArm_L
						{
							OFFSET 24.3286 1.87007e-05 0.0
							CHANNELS 6 Xposition Yposition Zposition Zrotation Xrotation Yrotation 
							JOINT Hand_L
							{
								OFFSET 22.2916 0.0 0.0
								CHANNELS 6 Xposition Yposition Zposition Zrotation Xrotation Yrotation 
								End Site
								{
									OFFSET 0.0 0.0 0.0
								}
							}
						}
					}
				}
				JOINT Shoulder_R
				{
					OFFSET 12.9945 -0.242716 -4.98039
					CHANNELS 6 Xposition Yposition Zposition Zrotation Xrotation Yrotation 
					JOINT UpperArm_R
					{
						OFFSET -5.34813 0.0 0.0
						CHANNELS 6 Xposition Yposition Zposition Zrotation Xrotation Yrotation 
						JOINT LowerArm_R
						{
							OFFSET -24.3289 0.000322201 0.0
							CHANNELS 6 Xposition Yposition Zposition Zrotation Xrotation Yrotation 
							JOINT Hand_R
							{
								OFFSET -22.2915 -0.000108084 0.0
								CHANNELS 6 Xposition Yposition Zposition Zrotation Xrotation Yrotation 
								End Site
								{
									OFFSET 0.0 0.0 0.0
								}
							}
						}
					}
				}
			}
		}
		JOINT UpperLeg_L
		{
			OFFSET -2.19248 -6.46944 0.0
			CHANNELS 6 Xposition Yposition Zposition Zrotation Xrotation Yrotation 
			JOINT LowerLeg_L
			{
				OFFSET 39.0811 0.0 -1.23785e-05
				CHANNELS 6 Xposition Yposition Zposition Zrotation Xrotation Yrotation 
				JOINT Foot_L
				{
					OFFSET 40.9854 0.0 -1.26872e-05
					CHANNELS 6 Xposition Yposition Zposition Zrotation Xrotation Yrotation 
					JOINT Toes_L
					{
						OFFSET 11.7543 0.0 0.0
						CHANNELS 6 Xposition Yposition Zposition Zrotation Xrotation Yrotation 
						End Site
						{
							OFFSET 0.0 0.0 0.0
						}
					}
				}
			}
		}
		JOINT UpperLeg_R
		{
			OFFSET -2.19251 6.46944 0.0
			CHANNELS 6 Xposition Yposition Zposition Zrotation Xrotation Yrotation 
			JOINT LowerLeg_R
			{
				OFFSET -39.0811 -0.00228153 -0.0401928
				CHANNELS 6 Xposition Yposition Zposition Zrotation Xrotation Yrotation 
				JOINT Foot_R
				{
					OFFSET -40.9854 0.0 0.0
					CHANNELS 6 Xposition Yposition Zposition Zrotation Xrotation Yrotation 
					JOINT Toes_R
					{
						OFFSET -11.7543 0.0 0.0
						CHANNELS 6 Xposition Yposition Zposition Zrotation Xrotation Yrotation 
						End Site
						{
							OFFSET 0.0 0.0 0.0
						}
					}
				}
			}
		}
	}
}
MOTION
Frames:	4
Frame Time:	0.0333333
0.000000 0.000000 0.000000 0.000000 0.000000 -0.000000 -3.112780 93.945900 53.501100 -83.503800 -7.031810 172.780000 15.735700 0.000005 -0.000001 45.467500 81.915200 -41.842000 8.984550 -0.406207 -0.000000 4.203500 -11.436300 7.683020 16.377300 -0.000001 -0.000001 -1.588800 -1.337550 -0.999398 6.456720 -0.000001 -0.000000 -0.202962 4.705710 -1.268940 12.994200 -0.242716 4.980390 -87.260100 -9.248800 -73.418600 5.348090 -0.000007 -0.000001 -71.890100 36.194100 -22.638000 24.328600 0.000019 0.000005 0.423585 -0.142984 -108.712000 22.291600 -0.000001 0.000005 1.371310 5.584590 -10.461200 12.994500 -0.242716 -4.980390 91.530200 -3.394020 -65.712700 -5.348130 -0.000001 -0.000004 -74.202200 35.927100 17.788700 -24.328900 0.000322 -0.000009 2.024290 0.221793 -83.761300 -22.291500 -0.000108 -0.000004 5.671630 5.616400 -12.377400 -2.192480 -6.469440 -0.000000 -170.001000 -7.359220 8.760760 39.081100 -0.000007 -0.000012 0.029394 -0.067854 23.422200 40.985400 -0.000006 -0.000013 0.580415 9.820150 -34.550000 11.754300 -0.000000 0.000003 -0.006596 -0.076169 -19.677300 -2.192510 6.469440 -0.000001 -169.874000 3.546750 140.345000 -39.081100 -0.002282 -0.040193 0.013608 -0.009186 48.422300 -40.985400 0.000008 0.000006 4.948430 -8.790600 -60.707300 -11.754300 -0.000006 -0.000006 -0.025918 -0.198107 -24.680100
0.000000 0.000000 0.000000 0.000000 0.000000 -0.000000 -3.680300 93.886400 43.501500 -86.633200 -6.541160 172.660000 15.735700 0.000005 -0.000001 43.184100 81.935200 -40.450300 8.984550 -0.406207 -0.000000 3.627760 -11.845800 5.853380 16.377300 -0.000001 -0.000001 -2.309080 -1.239080 -0.657499 6.456720 -0.000001 -0.000000 0.157597 4.781160 -1.249270 12.994200 -0.242716 4.980390 -86.974000 -10.199600 -73.378200 5.348090 -0.000007 -0.000001 -73.636800 37.193900 -19.568700 24.328600 0.000019 0.000005 -2.289230 0.835995 -110.049000 22.291600 -0.000001 0.000005 2.640640 5.595240 -11.058800 12.994500 -0.242716 -4.980390 92.158700 -4.848970 -65.966200 -5.348130 -0.000001 -0.000004 -76.448400 33.723400 20.084100 -24.328900 0.000322 -0.000009 1.377940 0.114066 -85.290500 -22.291500 -0.000108 -0.000004 5.162300 5.609160 -11.903100 -2.192480 -6.469440 -0.000000 -174.899000 -2.146640 9.421330 39.081100 -0.000007 -0.000012 0.012306 -0.020041 31.550400 40.985400 -0.000006 -0.000013 1.902390 -0.398099 -36.539200 11.754300 -0.000000 0.000003 -0.008509 -0.092147 -20.329600 -2.192510 6.469440 -0.000001 -173.022000 5.312860 146.146000 -39.081100 -0.002282 -0.040193 -0.005659 0.017243 27.472700 -40.985400 0.000008 0.000006 0.229046 -0.243738 -63.816400 -11.754300 -0.000006 -0.000006 -0.028199 -0.209088 -25.134700
0.000000 0.000000 0.000000 0.000000 0.000000 -0.000000 -4.202250 92.767900 33.170400 -89.439500 -5.370820 174.224000 15.735700 0.000005 -0.000001 47.473100 81.925600 -45.692500 8.984550 -0.406207 -0.000000 4.373770 -10.951000 3.985080 16.377300 -0.000001 -0.000001 -2.619880 -1.480630 -0.746909 6.456720 -0.000001 -0.000000 -0.776338 4.317880 -0.879882 12.994200 -0.242716 4.980390 -87.089700 -9.936700 -73.584300 5.348090 -0.000007 -0.000001 -74.589000 37.575100 -16.160100 24.328600 0.000019 0.000005 -3.803670 1.249000 -108.155000 22.291600 -0.000001 0.000005 3.032160 5.602400 -11.486600 12.994500 -0.242716 -4.980390 91.977600 -4.530040 -66.386700 -5.348130 -0.000001 -0.000004 -76.850300 31.876600 20.692800 -24.328900 0.000322 -0.000009 -0.467680 -0.027526 -86.562900 -22.291500 -0.000108 -0.000004 5.428820 5.604080 -11.589300 -2.192480 -6.469440 -0.000000 -179.447000 -0.073454 9.827360 39.081100 -0.000007 -0.000012 -0.030398 0.031537 43.949300 40.985400 -0.000006 -0.000013 3.283760 -7.510520 -37.634400 11.754300 -0.000000 0.000003 -0.008444 -0.091629 -20.308500 -2.192510 6.469440 -0.000001 -174.553000 9.237790 150.866000 -39.081100 -0.002282 -0.040193 -0.056460 0.184796 17.927400 -40.985400 0.000008 0.000006 -6.554100 7.872110 -65.808000 -11.754300 -0.000006 -0.000006 -0.030517 -0.219825 -25.580000
0.000000 0.000000 0.000000 0.000000 0.000000 -0.000000 -4.176930 90.770200 23.041200 -88.501100 -3.849590 175.898000 15.735700 0.000005 -0.000001 56.452300 81.966200 -54.333600 8.984550 -0.406207 -0.000000 5.848690 -8.892860 4.694360 16.377300 -0.000001 -0.000001 -2.642760 -1.505460 -0.994154 6.456720 -0.000001 -0.000000 -2.298240 3.562450 -0.946615 12.994200 -0.242716 4.980390 -87.534500 -8.277360 -73.348300 5.348090 -0.000007 -0.000001 -75.002600 37.422900 -12.539000 24.328600 0.000019 0.000005 -4.007370 0.900236 -102.638000 22.291600 -0.000001 0.000005 3.394530 5.603470 -11.551400 12.994500 -0.242716 -4.980390 91.157900 -2.759920 -67.235100 -5.348130 -0.000001 -0.000004 -74.773600 31.831900 17.655800 -24.328900 0.000322 -0.000009 -1.909040 -0.100270 -86.983800 -22.291500 -0.000108 -0.000004 6.590810 5.608300 -11.849300 -2.192480 -6.469440 -0.000000 -178.320000 -2.055460 6.303660 39.081100 -0.000007 -0.000012 -0.091639 0.049471 61.639900 40.985400 -0.000006 -0.000013 5.149110 -8.795930 -37.495600 11.754300 -0.000000 0.000003 -0.008340 -0.090793 -20.274300 -2.192510 6.469440 -0.000001 -171.142000 10.364100 150.917000 -39.081100 -0.002282 -0.040193 0.002871 0.000965 24.601000 -40.985400 0.000008 0.000006 0.659763 5.355450 -67.330700 -11.754300 -0.000006 -0.000006 -0.032299 -0.227814 -25.911900
